<svg xmlns="http://www.w3.org/2000/svg" viewBox="0 0 185.37 75.51"><defs><style>.cls-1{fill:#fff;}.cls-2{fill:#00447c;}.cls-3{fill:#d11242;}</style></defs><title>logo2</title><g id="Layer_2" data-name="Layer 2"><g id="Layer_1-2" data-name="Layer 1"><path class="cls-1" d="M132.09,23.08,106.73.45a1.44,1.44,0,0,0-2.45,1.4l.35,1.27c0,.11-.06.13-.11.11A31.34,31.34,0,0,0,93.86,1.3c-5.8,0-10.82,1.51-15.67,3-4.07,1.2-7.92,2.38-11.66,2.37-4.26,0-7.92-1.61-11.65-4.85-1.32-1.16-3-.48-2.59,1.3a16.05,16.05,0,0,0,2.9,6.54c.07.08,0,.15,0,.16a54.24,54.24,0,0,1-6.72.43A33.2,33.2,0,0,1,36.89,8.37c-1.64-.63-3,.81-1.7,2.22A26.34,26.34,0,0,0,41.68,16a.12.12,0,0,1,0,.21,41.62,41.62,0,0,1-8.81.83,104.16,104.16,0,0,1-10.77-.9,1.44,1.44,0,0,0-1.2,2.47,23.76,23.76,0,0,0,8.74,4.61.1.1,0,0,1,0,.19C13.45,30.12,3.6,36.65,1.7,38-1.41,40.22,0,43,3.93,42.19c2-.42,16.85-3.54,29.28-4.7.16,0,.19,0,0,.1-9.23,3-16.71,6.46-20.1,9.17a1.4,1.4,0,0,0,1.39,2.42c4.34-1.5,14.21-3.64,22-4.74.14,0,.17.05,0,.11a51.84,51.84,0,0,0-13.25,8.93C22,54.72,23.08,56.75,25,55.74A97.62,97.62,0,0,1,47.7,47.63c.1,0,.17.06.11.13a26.69,26.69,0,0,0-4.11,5.09C42.56,54.68,43.18,56,47,55.32,70.7,51,94.42,57.58,110.51,74.58c1.55,1.63,3,.91,2.89-.66a43.89,43.89,0,0,1-.36-6.07c.32-9.36,2.48-15.23,14.5-17.65,12.59-2.47,33.37-3.31,41.53-3.7l5.39-3.65c-11.33-2-34.72-4.39-49-4.22-1.47,0-1.63-.29-.11-.48,7.05-.89,31.22-3.27,53.6,3.55l6.46-2.13C172.86,31,155.11,26.28,132.09,23.08Z"/><path class="cls-2" d="M46.75,53.93c17-7.28,57.88-20.32,124.19-10.26l-2.33,1.6s-28.5,1.19-41.29,3.71c-9.2,1.84-15.57,5.56-15.62,19.15,0,1.9.16,3.91.39,6,0,.16-.17.2-.23,0-1.46-3.74-7-14.64,3.64-25,1.35-1.27,1.09-4.47-3.12-4.62C97.75,44,75.81,47,65.28,50.25c-.48.15-.44.33,0,.27C85,48.2,98.23,49,107,51.4c.25.07.24.25-.09.23-1.6-.11-15.08-.91-23.65,2-.4.13-.35.39,0,.37,14.19-.61,20.63,1.34,22.35,2.07.23.09.2.22-.09.21a35.63,35.63,0,0,0-11.26,1.53c-.33.1-.29.36,0,.38,7.55.58,10.81,2.12,11.86,2.73.28.16.24.27,0,.3a19.53,19.53,0,0,0-4.87,1.12c-.23.1-.16.35.07.37,5.7.48,7.56,7,7.94,8.64.06.24-.09.19-.18.09-6.88-7-29.12-23.35-62.33-17.3C46.54,54.15,46.5,54,46.75,53.93ZM104.2,24.85c-2.63-.23-4.33.93-4.48,2.8s1.89,3.59,4.51,3.87c2.31.25,4.26-.69,4.86-2.15h-2.27s-.06,0,0-.07c.32-1.53-1-2.78-3.09-3.28-.11,0,0-.06,0-.06h3.77A6.71,6.71,0,0,0,104.2,24.85Zm5.37-12.72c-1.1-.74-6-3.81-10.12-4.87C89.54,4.73,78.94,8.62,76.2,9.45c-8.87,2.64-14.65.59-16.76-.37-.36-.17-.39,0-.14.17a19.82,19.82,0,0,0,7.62,3.58c3,.64,6.92.34,11.55-.58,3-.6,10.24-3,15.3-1.62.13,0,.12.16,0,.17-5.85.92-8.47,3.49-11.24,6.57-40.34,3.89-76.46,20.24-80,21.85-.1.05-.17,0,0-.08,1.87-1.24,13.36-9,32.69-16.46.15-.05.16-.12,0-.11-1.68.11-7.35.15-13.32-4.89-.08-.07,0-.18.12-.16,12.33,1.77,18.56.69,24.34-1.07.15,0,.28-.12,0-.15-1.27-.11-5-1-10-6.5-.11-.12,0-.23.18-.17,8.7,3.36,19.32,1.55,21.19,1.19.2,0,.17-.19.07-.29a14.19,14.19,0,0,1-4-7.57c0-.19.17-.27.34-.11,16.58,14.72,29.41-7.62,52.5,2.61.18.08.21,0,.17-.14l-1-3.74c0-.17.07-.21.22-.09l25.67,22.86C152.89,27.27,171,32,182.38,39.26l-3.5,1.13c-26-7.53-51.63-3.93-63.28-2.21-8.17,1.16-16.77-.54-19.91-3.64-.14-.13,0-.28.25-.22,9.42,2.74,17.58-2.4,14.68-8.89l-7.75-2.83C99,22,95.83,23.82,95.69,27a6.09,6.09,0,0,0,4.23,6.07c.24.09.25.24,0,.22-3.68-.25-7.87-3.69-6-8.67,0-.05-.07-.1-.13-.08a8.86,8.86,0,0,1-4.94.53c-.15,0-.15-.16,0-.19,3.37-.62,9.2-6,15.24-4.1l8.26,2.85a8.8,8.8,0,0,0,5.24.17c.15-.05.11-.12,0-.17L105.11,18.2c-13.39-4.88-21.91,2.63-23.32,4.06-.14.15-.15,0-.12-.12C84,14.8,94.8,10.54,105.88,14.61l18.63,8.32c.12.07.19,0,.09-.11L109.16,9.48c-.11-.11-.21-.08-.16.07l.74,2.49C109.79,12.2,109.72,12.23,109.57,12.13Zm11.75,20.44c14.36-3.24,34-.56,38.05,0,.48.07.28,0,0-.13-10.14-3.47-26.25-5.33-28.32-5.57a.49.49,0,0,0-.36.17c-2,2.79-8.35,4.82-9.54,5.2C120.86,32.4,120.78,32.69,121.32,32.57Z"/><path class="cls-3" d="M14.13,48.05c6.17-1.94,23.35-5.73,30.32-5.43.31,0,.34.22.07.3-5,1.55-14.06,5.32-20.23,11.54-.16.16-.08.28.12.18a111.3,111.3,0,0,1,28.16-9.35c.27-.06.34,0,.06.22a28.22,28.22,0,0,0-7.79,8.07c-.12.2,0,.25.12.17A119.51,119.51,0,0,1,84.87,37.56c.38-.09.35-.31-.07-.32-11.33-.47-30.1,2.41-37.69,4.92-.31.1-.34-.06-.07-.24,8.76-5.46,27.33-9,32.8-10.11.65-.13.4-.29,0-.32-9-.7-23.17,1.14-34.27,3.88-.34.09-.38-.12,0-.3,6.69-3.47,20.88-7.93,31.24-8.67.34,0,.33-.21,0-.27-14.65-2.5-50.94,4.11-73.09,14.78-.08,0-.15.1,0,.06,2.77-.59,26.76-5.6,39.51-5.14.32,0,.33.2,0,.27C29.8,39.59,18.14,44.35,14,47.83,13.76,48.06,13.94,48.1,14.13,48.05Z"/></g></g></svg>